<?xml version="1.0" encoding="UTF-8" standalone="no"?>
<svg
   xmlns:dc="http://purl.org/dc/elements/1.1/"
   xmlns:cc="http://creativecommons.org/ns#"
   xmlns:rdf="http://www.w3.org/1999/02/22-rdf-syntax-ns#"
   xmlns:svg="http://www.w3.org/2000/svg"
   xmlns="http://www.w3.org/2000/svg"
   xmlns:sodipodi="http://sodipodi.sourceforge.net/DTD/sodipodi-0.dtd"
   xmlns:inkscape="http://www.inkscape.org/namespaces/inkscape"
   sodipodi:docname="triceratops.svg"
   inkscape:version="1.0beta1 (fe3e306, 2019-09-17)"
   id="svg8"
   version="1.1"
   viewBox="0 0 210 297"
   height="297mm"
   width="210mm">
  <defs
     id="defs2" />
  <sodipodi:namedview
     inkscape:window-maximized="0"
     inkscape:window-y="39"
     inkscape:window-x="12"
     inkscape:window-height="767"
     inkscape:window-width="1332"
     inkscape:snap-global="false"
     showgrid="false"
     inkscape:document-rotation="0"
     inkscape:current-layer="layer1"
     inkscape:document-units="mm"
     inkscape:cy="232.09505"
     inkscape:cx="440.70427"
     inkscape:zoom="1.700065"
     inkscape:pageshadow="2"
     inkscape:pageopacity="0.0"
     borderopacity="1.0"
     bordercolor="#666666"
     pagecolor="#ffffff"
     id="base" />
  <metadata
     id="metadata5">
    <rdf:RDF>
      <cc:Work
         rdf:about="">
        <dc:format>image/svg+xml</dc:format>
        <dc:type
           rdf:resource="http://purl.org/dc/dcmitype/StillImage" />
        <dc:title></dc:title>
      </cc:Work>
    </rdf:RDF>
  </metadata>
  <g
     id="layer1"
     inkscape:groupmode="layer"
     inkscape:label="Layer 1">
    <path
       sodipodi:nodetypes="csscsscc"
       inkscape:connector-curvature="0"
       id="path873"
       d="M 84.974691,43.576763 C 88.55421,37.974037 104.5833,24.619389 119.05794,28.324897 c 19.45391,4.980201 16.3368,22.750215 30.34811,28.324897 6.13682,2.441659 22.25527,7.15904 22.25527,7.15904 0,0 -6.22525,2.023205 -15.09623,1.867575 -8.87099,-0.155631 -29.56995,2.334469 -42.48735,1.711944 -12.91739,-0.622525 -29.414313,-5.602727 -29.414313,-5.602727 z"
       style="font-variation-settings:normal;opacity:1;vector-effect:none;fill:#71c837;fill-opacity:1;stroke:#000000;stroke-width:0.264583px;stroke-linecap:butt;stroke-linejoin:miter;stroke-miterlimit:4;stroke-dasharray:none;stroke-dashoffset:0;stroke-opacity:1;stop-color:#000000;stop-opacity:1" />
    <path
       sodipodi:nodetypes="cccccccccczccczc"
       inkscape:connector-curvature="0"
       id="path12"
       d="m 85.259337,63.438727 15.173273,-4.190714 -3.757193,-4.913249 10e-7,-5.49128 -4.91325,-2.167609 0.289016,-5.924803 -6.64734,-2.167608 -2.890146,-5.202266 -8.092413,-0.867045 -1.300565,16.762854 c 0,0 -12.165976,7.276486 -13.439183,10.693545 -1.273207,3.417059 0.867044,4.624235 0.867044,4.624235 l 6.647338,-2.312118 -3.468176,5.49128 c 0,0 1.607152,1.258895 5.346772,1.011551 3.73962,-0.247344 16.184822,-5.346773 16.184822,-5.346773 z"
       style="fill:#71c837;stroke:#000000;stroke-width:0.26458300000000001px;stroke-linecap:butt;stroke-linejoin:miter;stroke-opacity:1" />
    <g
       transform="translate(54.597968,29.006732)"
       id="g843">
      <circle
         style="fill:#ffffff;stroke:#000000;stroke-width:0.5;stroke-miterlimit:4;stroke-dasharray:none"
         id="path14"
         cx="26.15583"
         cy="-25.288786"
         r="2.6011324"
         transform="scale(1,-1)" />
      <circle
         r="1.8058779"
         cy="-25.435148"
         cx="25.468725"
         id="circle839"
         style="fill:#000000;stroke:#000000;stroke-width:0.347134;stroke-miterlimit:4;stroke-dasharray:none"
         transform="scale(1,-1)" />
    </g>
    <path
       style="fill:#cccccc;stroke:#000000;stroke-width:0.264583px;stroke-linecap:butt;stroke-linejoin:miter;stroke-opacity:1"
       d="M 72.079076,50.459701 62.009915,37.599756 75.30379,46.673577 c 0,0 1.270831,0.82821 -0.293142,2.678141 -1.563972,1.849931 -2.931572,1.107983 -2.931572,1.107983 z"
       id="path845"
       inkscape:connector-curvature="0"
       sodipodi:nodetypes="ccczc" />
    <path
       sodipodi:nodetypes="ccczc"
       inkscape:connector-curvature="0"
       id="path10"
       d="M 75.414159,50.367205 68.026467,35.800524 79.311129,47.277359 c 0,0 1.086353,1.058669 -0.80631,2.570649 -1.892662,1.51198 -3.09066,0.519197 -3.09066,0.519197 z"
       style="fill:#cccccc;stroke:#000000;stroke-width:0.264583px;stroke-linecap:butt;stroke-linejoin:miter;stroke-opacity:1" />
    <path
       style="fill:#cccccc;stroke:#000000;stroke-width:0.223315px;stroke-linecap:butt;stroke-linejoin:miter;stroke-opacity:1"
       d="M 58.913034,61.528339 C 56.280013,60.145732 52.63399,49.319134 52.63399,49.319134 c 0,0 5.409351,7.161453 9.591208,9.619421 0,0 0.923327,0.887334 -0.68531,2.154614 -1.608636,1.267281 -2.626854,0.43517 -2.626854,0.43517 z"
       id="path847"
       inkscape:connector-curvature="0"
       sodipodi:nodetypes="ccczc" />
    <path
       sodipodi:nodetypes="cc"
       inkscape:connector-curvature="0"
       id="path849"
       d="m 80.928275,47.311915 3.735154,-7.31467"
       style="fill:none;stroke:#000000;stroke-width:0.264583px;stroke-linecap:butt;stroke-linejoin:miter;stroke-opacity:1" />
    <path
       sodipodi:nodetypes="cc"
       inkscape:connector-curvature="0"
       id="path851"
       d="m 86.064108,51.358329 4.51331,-3.735153"
       style="fill:none;stroke:#000000;stroke-width:0.264583px;stroke-linecap:butt;stroke-linejoin:miter;stroke-opacity:1" />
    <path
       sodipodi:nodetypes="cc"
       inkscape:connector-curvature="0"
       id="path853"
       d="m 88.865471,56.649793 6.069621,-2.023207"
       style="fill:none;stroke:#000000;stroke-width:0.264583px;stroke-linecap:butt;stroke-linejoin:miter;stroke-opacity:1" />
  </g>
</svg>
