<?xml version="1.0" encoding="UTF-8" standalone="no"?>
<svg
   xmlns:dc="http://purl.org/dc/elements/1.1/"
   xmlns:cc="http://creativecommons.org/ns#"
   xmlns:rdf="http://www.w3.org/1999/02/22-rdf-syntax-ns#"
   xmlns:svg="http://www.w3.org/2000/svg"
   xmlns="http://www.w3.org/2000/svg"
   xmlns:sodipodi="http://sodipodi.sourceforge.net/DTD/sodipodi-0.dtd"
   xmlns:inkscape="http://www.inkscape.org/namespaces/inkscape"
   inkscape:version="1.0beta1 (fe3e306, 2019-09-17)"
   sodipodi:docname="shark2.svg"
   id="svg8"
   version="1.1"
   viewBox="0 0 55.562492 111.125"
   height="111.125mm"
   width="55.562492mm">
  <defs
     id="defs2" />
  <sodipodi:namedview
     inkscape:window-maximized="0"
     inkscape:window-y="23"
     inkscape:window-x="0"
     inkscape:window-height="855"
     inkscape:window-width="960"
     inkscape:snap-global="false"
     showgrid="false"
     inkscape:document-rotation="0"
     inkscape:current-layer="layer3"
     inkscape:document-units="mm"
     inkscape:cy="203.31045"
     inkscape:cx="54.256089"
     inkscape:zoom="1.3024883"
     inkscape:pageshadow="2"
     inkscape:pageopacity="0.0"
     borderopacity="1.0"
     bordercolor="#666666"
     pagecolor="#ffffff"
     id="base">
    <inkscape:grid
       originy="-42.333333"
       originx="-62.177086"
       id="grid833"
       type="xygrid" />
  </sodipodi:namedview>
  <metadata
     id="metadata5">
    <rdf:RDF>
      <cc:Work
         rdf:about="">
        <dc:format>image/svg+xml</dc:format>
        <dc:type
           rdf:resource="http://purl.org/dc/dcmitype/StillImage" />
        <dc:title></dc:title>
      </cc:Work>
    </rdf:RDF>
  </metadata>
  <g
     style="display:inline"
     inkscape:label="Fins"
     id="layer5"
     inkscape:groupmode="layer">
    <path
       sodipodi:nodetypes="csc"
       inkscape:connector-curvature="0"
       id="path837"
       d="M 97.895833,124.35417 C 100.54167,127 117.73958,127 117.73958,128.32292 c 0,1.32291 -1.32291,1.32291 -18.520831,6.61458 z"
       style="display:inline;fill:#999999;stroke:#000000;stroke-width:0.264583px;stroke-linecap:butt;stroke-linejoin:miter;stroke-opacity:1"
       transform="translate(-62.177086,-42.333333)" />
    <path
       style="display:inline;fill:#999999;stroke:#000000;stroke-width:0.264583px;stroke-linecap:butt;stroke-linejoin:miter;stroke-opacity:1"
       d="M 82.020833,124.35417 C 79.374997,127 62.177086,127 62.177086,128.32292 c 0,1.32291 1.32291,1.32291 18.520831,6.61458 z"
       id="path837-7"
       inkscape:connector-curvature="0"
       sodipodi:nodetypes="csc"
       transform="translate(-62.177086,-42.333333)" />
  </g>
  <g
     style="display:inline"
     transform="translate(-62.177086,-42.333333)"
     id="layer1"
     inkscape:groupmode="layer"
     inkscape:label="Tail center">
    <path
       sodipodi:nodetypes="zszszsz"
       inkscape:connector-curvature="0"
       id="path835"
       d="m 88.635417,66.145833 c 0,9.921875 -9.260417,50.270837 -9.260417,66.145837 0,15.875 7.937499,21.16666 10.583333,21.16666 2.645834,0 10.583337,-5.29166 10.583337,-21.16666 0,-15.875 -9.26042,-56.223962 -9.26042,-66.145837 0,-9.921875 0,-23.8125 -1.322917,-23.8125 -1.322916,0 -1.322916,13.890625 -1.322916,23.8125 z"
       style="fill:#999999;stroke:#000000;stroke-width:0.264583px;stroke-linecap:butt;stroke-linejoin:miter;stroke-opacity:1" />
    <path
       sodipodi:nodetypes="zcz"
       inkscape:connector-curvature="0"
       id="path884"
       d="m 89.958332,60.854167 c 0.793751,0 10e-7,-13.229167 10e-7,-13.229167 0,0 -0.793752,13.229167 -10e-7,13.229167 z"
       style="fill:#808080;stroke:#000000;stroke-width:0.264583px;stroke-linecap:butt;stroke-linejoin:miter;stroke-opacity:1" />
    <path
       style="fill:#808080;stroke:#000000;stroke-width:0.264583px;stroke-linecap:butt;stroke-linejoin:miter;stroke-opacity:1"
       d="m 89.958333,121.70833 c 1.322917,0 0,-22.613072 0,-22.613072 0,0 -1.322916,22.613072 0,22.613072 z"
       id="path895"
       inkscape:connector-curvature="0"
       sodipodi:nodetypes="zcz" />
  </g>
  <g
     style="display:none"
     inkscape:label="Tail left"
     id="layer2"
     inkscape:groupmode="layer">
    <path
       style="display:inline;fill:#999999;stroke:#000000;stroke-width:0.264583px;stroke-linecap:butt;stroke-linejoin:miter;stroke-opacity:1"
       d="M 89.706577,69.56545 C 91.453001,86.448549 79.375,116.41667 79.375,132.29167 c 0,15.875 7.937499,21.16666 10.583333,21.16666 2.645834,0 10.583337,-5.29166 10.583337,-21.16666 0,-15.875 -6.684176,-56.438194 -8.189259,-66.360069 -1.505083,-9.921875 -7.685744,-20.952434 -8.617026,-20.594086 -1.234665,0.475087 4.224768,7.344836 5.971192,24.227935 z"
       id="path917"
       inkscape:connector-curvature="0"
       sodipodi:nodetypes="zszszsz"
       transform="translate(-62.177086,-42.333333)" />
    <path
       style="display:inline;fill:#808080;stroke:#000000;stroke-width:0.264583px;stroke-linecap:butt;stroke-linejoin:miter;stroke-opacity:1"
       d="M 28.141445,21.280288 C 28.63418,21.179949 25.571221,8.8427188 22.406914,4.5908259 25.598121,11.363835 27.64871,21.380627 28.141445,21.280288 Z"
       id="path919"
       inkscape:connector-curvature="0"
       sodipodi:nodetypes="zcz" />
    <path
       sodipodi:nodetypes="zcz"
       inkscape:connector-curvature="0"
       id="path921"
       d="m 27.507545,79.474674 c 1.319385,0.0966 1.651235,-22.552703 1.651235,-22.552703 0,0 -2.97062,22.456102 -1.651235,22.552703 z"
       style="display:inline;fill:#808080;stroke:#000000;stroke-width:0.264583px;stroke-linecap:butt;stroke-linejoin:miter;stroke-opacity:1" />
  </g>
  <g
     style="display:none"
     inkscape:label="Tail right"
     id="layer3"
     inkscape:groupmode="layer">
    <path
       sodipodi:nodetypes="zszszsz"
       inkscape:connector-curvature="0"
       id="path977"
       d="m 28.033007,27.232117 c -1.746424,16.883099 10.331577,46.85122 10.331577,62.72622 0,15.875003 -7.937499,21.166663 -10.583333,21.166663 -2.645834,0 -10.583337,-5.29166 -10.583337,-21.166663 0,-15.875 6.684176,-56.438194 8.189259,-66.360069 1.505083,-9.921875 7.685744,-20.952434 8.617026,-20.594086 1.234665,0.475087 -4.224768,7.344836 -5.971192,24.227935 z"
       style="display:inline;fill:#999999;stroke:#000000;stroke-width:0.264583px;stroke-linecap:butt;stroke-linejoin:miter;stroke-opacity:1" />
    <path
       sodipodi:nodetypes="zcz"
       inkscape:connector-curvature="0"
       id="path979"
       d="M 27.421053,21.280288 C 26.928318,21.179949 29.991277,8.8427188 33.155584,4.5908259 29.964377,11.363835 27.913788,21.380627 27.421053,21.280288 Z"
       style="display:inline;fill:#808080;stroke:#000000;stroke-width:0.264583px;stroke-linecap:butt;stroke-linejoin:miter;stroke-opacity:1" />
    <path
       style="display:inline;fill:#808080;stroke:#000000;stroke-width:0.264583px;stroke-linecap:butt;stroke-linejoin:miter;stroke-opacity:1"
       d="m 28.054953,79.474674 c -1.319385,0.0966 -1.651235,-22.552703 -1.651235,-22.552703 0,0 2.97062,22.456102 1.651235,22.552703 z"
       id="path981"
       inkscape:connector-curvature="0"
       sodipodi:nodetypes="zcz" />
  </g>
  <g
     style="display:inline"
     inkscape:label="Eyes"
     id="layer4"
     inkscape:groupmode="layer">
    <ellipse
       transform="rotate(-33.385084,-101.6741,82.505869)"
       ry="1.0279438"
       rx="0.38547894"
       cy="169.9762"
       cx="-10.14301"
       id="path860"
       style="display:inline;fill:#000000;stroke:#000000;stroke-width:0.499999" />
    <ellipse
       style="display:inline;fill:#000000;stroke:#000000;stroke-width:0.499999"
       id="ellipse871"
       cx="-160.43932"
       cy="71.084053"
       rx="0.38547894"
       ry="1.0279438"
       transform="matrix(-0.83499113,-0.55026338,-0.55026338,0.83499113,-62.177086,-42.333333)" />
  </g>
</svg>
